<svg width="57" height="57" viewBox="0 0 57 57" fill="none" xmlns="http://www.w3.org/2000/svg">
<path d="M5.87072 41.9126C2.60347 36.4003 1.46063 29.8849 2.65674 23.5897C3.85285 17.2944 7.30567 11.6522 12.367 7.72232C17.4283 3.79242 23.75 1.84507 30.1453 2.24587C36.5406 2.64666 42.5698 5.36804 47.1008 9.89909C51.6319 14.4301 54.3533 20.4593 54.754 26.8546C55.1548 33.2499 53.2075 39.5716 49.2776 44.6329C45.3477 49.6942 39.7055 53.1471 33.4103 54.3432C27.115 55.5393 20.5996 54.3964 15.0873 51.1292V51.1292L5.98044 53.7076C5.60733 53.8168 5.21173 53.8235 4.83511 53.7272C4.4585 53.6308 4.11473 53.435 3.83984 53.1601C3.56496 52.8852 3.36909 52.5414 3.27275 52.1648C3.17641 51.7882 3.18316 51.3926 3.29228 51.0195L5.87072 41.9126Z" stroke="black" stroke-width="4.35759" stroke-linecap="round" stroke-linejoin="round"/>
</svg>
