<svg width="22" height="23" viewBox="0 0 22 23" fill="none" xmlns="http://www.w3.org/2000/svg">
<path d="M11 0C17.0751 0 22 4.92487 22 11C22 12.2691 21.5577 13.9814 20.6729 16.1367L20.502 16.5459L21.5459 20.8428C21.5943 21.042 21.5804 21.2514 21.5059 21.4424C21.3194 21.92 20.8065 22.1738 20.3223 22.0469L20.2109 22.0107L16.4648 20.5488C14.1478 21.5163 12.326 22 11 22C4.92487 22 0 17.0751 0 11C0 4.92487 4.92487 0 11 0ZM11 1.5C5.75329 1.5 1.5 5.75329 1.5 11C1.5 16.2467 5.75329 20.5 11 20.5C12.0245 20.5 13.5449 20.1124 15.5127 19.3184L16.4453 18.9316L19.8623 20.2637L18.9268 16.417L19.2715 15.6006C20.0971 13.5954 20.5 12.0455 20.5 11C20.5 5.75329 16.2467 1.5 11 1.5Z" fill="#262626"/>
</svg>
