<svg width="24" height="21" viewBox="0 0 24 21" fill="none" xmlns="http://www.w3.org/2000/svg">
<path d="M1.76624 2.09893C4.4402 -0.575025 8.70516 -0.757298 11.3791 1.91666L12.0428 2.6933L12.7858 1.91666C15.3976 -0.695049 19.4467 -0.573612 22.1322 1.91666L22.3214 2.09893C24.9331 4.71066 24.2935 9.93071 21.8033 12.6162L21.4754 12.962L21.1109 13.3344C19.7057 14.7456 17.5516 16.6776 14.6491 19.1305L12.9918 20.5203C12.4199 20.9962 11.5878 20.9886 11.0245 20.5025L8.97887 18.7263L7.15714 17.1245C4.99197 15.2045 3.36661 13.7015 2.28136 12.6162C-0.392505 9.94237 -0.907399 4.77297 1.76624 2.09893ZM21.098 3.03209C18.9529 1.04288 15.8389 1.01467 13.8854 2.9677L11.9814 4.9608L10.2637 2.95383C8.22815 0.961396 4.95646 1.06032 2.84204 3.17473C0.878675 5.13853 1.15449 9.33776 3.35716 11.5404L3.75241 11.9307C4.86507 13.0168 6.45451 14.4729 8.51428 16.2934L9.97543 17.5772L12.0181 19.3504L13.6674 17.9685L14.8512 16.9611C17.1272 15.0107 18.8533 13.4445 20.0182 12.2755L20.3699 11.9169L20.6869 11.582C22.7972 9.3063 23.1119 5.04057 21.2664 3.19455L21.098 3.03209Z" fill="#262626"/>
</svg>
