<svg width="24" height="21" viewBox="0 0 24 21" fill="none" xmlns="http://www.w3.org/2000/svg">
<path fill-rule="evenodd" clip-rule="evenodd" d="M12.0433 2.6933L11.3788 1.91669C8.70486 -0.757271 4.44058 -0.575055 1.76662 2.0989C-0.907338 4.77286 -0.392728 9.9425 2.28123 12.6165C3.36648 13.7017 4.9917 15.2043 7.15691 17.1243L8.97846 18.7268L11.0244 20.5027C11.5877 20.9889 12.42 20.9963 12.992 20.5203L14.6493 19.1307C17.5518 16.6778 19.7056 14.7457 21.1108 13.3345L21.4755 12.9626L21.803 12.6165C24.2933 9.93096 24.9333 4.71067 22.3216 2.0989L22.1323 1.91669C19.4469 -0.573608 15.3973 -0.695086 12.7855 1.91669L12.0433 2.6933ZM2.84254 3.17482C4.95695 1.06041 8.22805 0.961279 10.2636 2.95371L11.9809 4.96083L13.8855 2.96797C15.8391 1.01494 18.9526 1.04318 21.0977 3.03239L21.2661 3.19488C23.1117 5.04085 22.7977 9.30608 20.6873 11.5818L20.3703 11.9167L20.0186 12.2753C18.8537 13.4444 17.1274 15.0107 14.8511 16.9613L13.6672 17.9686L12.0186 19.3508L9.97588 17.5777L8.51393 16.2935C6.45391 14.4728 4.86473 13.0166 3.75205 11.9305L3.35715 11.5405C1.15437 9.33776 0.878861 5.1385 2.84254 3.17482Z" fill="#262626"/>
</svg>
