<svg width="55" height="48" viewBox="0 0 55 48" fill="none" xmlns="http://www.w3.org/2000/svg">
<path d="M27.2727 47.9999C27.2727 47.9999 0 32.7272 0 14.1818C0 10.9033 1.13589 7.72611 3.21442 5.19072C5.29294 2.65532 8.1857 0.918387 11.4005 0.275423C14.6153 -0.367541 17.9536 0.123187 20.8474 1.66412C23.7412 3.20505 26.0117 5.70099 27.2727 8.72728C28.5336 5.70099 30.8042 3.20505 33.698 1.66412C36.5917 0.123187 39.93 -0.367541 43.1449 0.275423C46.3597 0.918387 49.2524 2.65532 51.331 5.19072C53.4095 7.72611 54.5454 10.9033 54.5454 14.1818C54.5454 32.7272 27.2727 47.9999 27.2727 47.9999Z" fill="#DB3B3B"/>
</svg>
