<svg width="60" height="60" viewBox="0 0 60 60" fill="none" xmlns="http://www.w3.org/2000/svg">
<path d="M55.0226 2.2849L3.81576 16.7074C3.37986 16.8266 2.99129 17.0773 2.70299 17.4252C2.41469 17.7732 2.24067 18.2016 2.20463 18.6521C2.1686 19.1025 2.2723 19.5532 2.50161 19.9425C2.73092 20.3319 3.07469 20.6412 3.4861 20.8281L27.0017 31.9541C27.4623 32.1674 27.8323 32.5374 28.0456 32.998L39.1716 56.5136C39.3585 56.925 39.6678 57.2688 40.0572 57.4981C40.4465 57.7274 40.8972 57.8311 41.3476 57.7951C41.7981 57.759 42.2265 57.585 42.5745 57.2967C42.9225 57.0084 43.1731 56.6198 43.2923 56.1839L57.7148 4.9771C57.8241 4.60343 57.8309 4.20723 57.7344 3.83005C57.6379 3.45286 57.4417 3.10858 57.1664 2.83328C56.8911 2.55799 56.5468 2.36181 56.1697 2.26533C55.7925 2.16885 55.3963 2.17561 55.0226 2.2849V2.2849Z" stroke="black" stroke-width="4.35759" stroke-linecap="round" stroke-linejoin="round"/>
</svg>
