<svg width="21" height="24" viewBox="0 0 21 24" fill="none" xmlns="http://www.w3.org/2000/svg">
<path fill-rule="evenodd" clip-rule="evenodd" d="M0 0.512159V22.6911C0 22.9603 0.105949 23.2186 0.294936 23.4103C0.692131 23.8131 1.34068 23.8177 1.7435 23.4205L10.5 14.7864L19.2565 23.4205C19.4482 23.6095 19.7065 23.7154 19.9757 23.7154C20.5414 23.7154 21 23.2568 21 22.6911V0.512159C21 0.229301 20.7707 0 20.4879 0H0.512159C0.229301 0 0 0.229301 0 0.512159ZM1.53648 21.4668V1.53648H19.4635V21.4668L11.2192 13.3377C10.8204 12.9445 10.1796 12.9445 9.78082 13.3377L1.53648 21.4668Z" fill="#262626"/>
</svg>
