<svg width="21" height="24" viewBox="0 0 21 24" fill="none" xmlns="http://www.w3.org/2000/svg">
<path d="M20.4879 0C20.7705 0.000261672 21 0.229457 21 0.512146V22.6905C21 23.256 20.5412 23.7145 19.9757 23.7148C19.7066 23.7148 19.4482 23.6086 19.2565 23.4197L10.5 14.7862L1.7435 23.4197C1.3407 23.8169 0.692276 23.8124 0.295084 23.4097C0.106102 23.218 0 22.9596 0 22.6905V0.512146C0 0.229296 0.229296 0 0.512146 0H20.4879ZM1.53644 21.4661L9.78079 13.3378C10.1796 12.9446 10.8204 12.9446 11.2192 13.3378L19.4636 21.4661V1.53644H1.53644V21.4661Z" fill="#262626"/>
</svg>
